<svg width="2492" height="153" viewBox="0 0 2492 153" fill="none" xmlns="http://www.w3.org/2000/svg">
<path d="M6 76.5C88.6667 -16.1667 171.333 -16.1667 254 76.5C336.667 169.167 419.333 169.167 502 76.5C584.667 -16.1667 667.333 -16.1667 750 76.5C832.667 169.167 915.333 169.167 998 76.5C1080.67 -16.1667 1163.33 -16.1667 1246 76.5C1328.67 169.167 1411.33 169.167 1494 76.5C1576.67 -16.1667 1659.33 -16.1667 1742 76.5C1824.67 169.167 1907.33 169.167 1990 76.5C2072.67 -16.1667 2155.33 -16.1667 2238 76.5C2320.67 169.167 2403.33 169.167 2486 76.5" stroke="white" stroke-width="14"/>
</svg>
